<mxfile host="app.diagrams.net" modified="2021-06-15T14:06:38.513Z" agent="5.0 (Windows NT 10.0; Win64; x64) AppleWebKit/537.36 (KHTML, like Gecko) Chrome/91.0.4472.106 Safari/537.36" etag="JZYy3XsP29a3GPo5fsW1" version="14.7.8" type="github">
  <diagram id="7nU1eIY9QLICu4B9qE_H" name="Page-1">
    <mxGraphModel dx="849" dy="433" grid="1" gridSize="10" guides="1" tooltips="1" connect="1" arrows="1" fold="1" page="1" pageScale="1" pageWidth="827" pageHeight="1169" math="0" shadow="0">
      <root>
        <mxCell id="0" />
        <mxCell id="1" parent="0" />
        <mxCell id="Y9fj9it7RLVxMw9HlYQP-4" style="edgeStyle=orthogonalEdgeStyle;rounded=0;orthogonalLoop=1;jettySize=auto;html=1;entryX=0.049;entryY=0.334;entryDx=0;entryDy=0;entryPerimeter=0;" parent="1" source="vdwOX1-9iGupVlLqCvTR-1" target="vdwOX1-9iGupVlLqCvTR-3" edge="1">
          <mxGeometry relative="1" as="geometry">
            <mxPoint x="358" y="138" as="targetPoint" />
            <Array as="points">
              <mxPoint x="250" y="137" />
              <mxPoint x="250" y="137" />
            </Array>
          </mxGeometry>
        </mxCell>
        <mxCell id="vdwOX1-9iGupVlLqCvTR-1" value="Teacher" style="html=1;dashed=0;whitespace=wrap;" parent="1" vertex="1">
          <mxGeometry x="120" y="130" width="100" height="50" as="geometry" />
        </mxCell>
        <mxCell id="vdwOX1-9iGupVlLqCvTR-2" value="Student" style="html=1;dashed=0;whitespace=wrap;" parent="1" vertex="1">
          <mxGeometry x="640" y="130" width="100" height="50" as="geometry" />
        </mxCell>
        <mxCell id="Y9fj9it7RLVxMw9HlYQP-3" style="edgeStyle=orthogonalEdgeStyle;rounded=0;orthogonalLoop=1;jettySize=auto;html=1;entryX=1;entryY=0.75;entryDx=0;entryDy=0;" parent="1" source="vdwOX1-9iGupVlLqCvTR-3" target="vdwOX1-9iGupVlLqCvTR-1" edge="1">
          <mxGeometry relative="1" as="geometry">
            <mxPoint x="220" y="171" as="targetPoint" />
            <Array as="points">
              <mxPoint x="230" y="168" />
            </Array>
          </mxGeometry>
        </mxCell>
        <mxCell id="Y9fj9it7RLVxMw9HlYQP-9" style="edgeStyle=orthogonalEdgeStyle;rounded=0;orthogonalLoop=1;jettySize=auto;html=1;exitX=1;exitY=0.5;exitDx=0;exitDy=0;entryX=0;entryY=0.5;entryDx=0;entryDy=0;" parent="1" source="vdwOX1-9iGupVlLqCvTR-3" target="vdwOX1-9iGupVlLqCvTR-2" edge="1">
          <mxGeometry relative="1" as="geometry" />
        </mxCell>
        <mxCell id="vdwOX1-9iGupVlLqCvTR-3" value="0.0&lt;br&gt;Courses&amp;nbsp;&lt;br&gt;Management&lt;br&gt;System" style="shape=ellipse;html=1;dashed=0;whitespace=wrap;aspect=fixed;perimeter=ellipsePerimeter;" parent="1" vertex="1">
          <mxGeometry x="359" y="100" width="110" height="110" as="geometry" />
        </mxCell>
        <mxCell id="Y9fj9it7RLVxMw9HlYQP-2" value="Manage courses" style="text;html=1;align=center;verticalAlign=middle;resizable=0;points=[];autosize=1;strokeColor=none;" parent="1" vertex="1">
          <mxGeometry x="220" y="110" width="100" height="20" as="geometry" />
        </mxCell>
        <mxCell id="Y9fj9it7RLVxMw9HlYQP-8" value="Student Info&lt;br&gt;" style="text;html=1;strokeColor=none;fillColor=none;align=center;verticalAlign=middle;whiteSpace=wrap;rounded=0;" parent="1" vertex="1">
          <mxGeometry x="270" y="180" width="40" height="20" as="geometry" />
        </mxCell>
        <mxCell id="Y9fj9it7RLVxMw9HlYQP-10" value="Courses Info&lt;br&gt;" style="text;html=1;strokeColor=none;fillColor=none;align=center;verticalAlign=middle;whiteSpace=wrap;rounded=0;" parent="1" vertex="1">
          <mxGeometry x="530" y="120" width="40" height="20" as="geometry" />
        </mxCell>
        <mxCell id="xBRm8FuffjSxmIKwbL47-14" style="edgeStyle=orthogonalEdgeStyle;rounded=0;orthogonalLoop=1;jettySize=auto;html=1;exitX=0.5;exitY=1;exitDx=0;exitDy=0;entryX=0.5;entryY=0;entryDx=0;entryDy=0;" edge="1" parent="1" source="xBRm8FuffjSxmIKwbL47-2" target="xBRm8FuffjSxmIKwbL47-4">
          <mxGeometry relative="1" as="geometry" />
        </mxCell>
        <mxCell id="xBRm8FuffjSxmIKwbL47-2" value="1.0&lt;br&gt;Manage own&lt;br&gt;Courses" style="shape=ellipse;html=1;dashed=0;whitespace=wrap;aspect=fixed;perimeter=ellipsePerimeter;" vertex="1" parent="1">
          <mxGeometry x="365" y="340" width="90" height="90" as="geometry" />
        </mxCell>
        <mxCell id="xBRm8FuffjSxmIKwbL47-12" style="edgeStyle=orthogonalEdgeStyle;rounded=0;orthogonalLoop=1;jettySize=auto;html=1;exitX=1;exitY=0.5;exitDx=0;exitDy=0;entryX=0.043;entryY=0.191;entryDx=0;entryDy=0;entryPerimeter=0;" edge="1" parent="1" source="xBRm8FuffjSxmIKwbL47-3" target="xBRm8FuffjSxmIKwbL47-2">
          <mxGeometry relative="1" as="geometry" />
        </mxCell>
        <mxCell id="xBRm8FuffjSxmIKwbL47-19" style="edgeStyle=orthogonalEdgeStyle;rounded=0;orthogonalLoop=1;jettySize=auto;html=1;entryX=0.228;entryY=0.08;entryDx=0;entryDy=0;entryPerimeter=0;" edge="1" parent="1" source="xBRm8FuffjSxmIKwbL47-3" target="xBRm8FuffjSxmIKwbL47-7">
          <mxGeometry relative="1" as="geometry">
            <Array as="points">
              <mxPoint x="190" y="517" />
            </Array>
          </mxGeometry>
        </mxCell>
        <mxCell id="xBRm8FuffjSxmIKwbL47-20" style="edgeStyle=orthogonalEdgeStyle;rounded=0;orthogonalLoop=1;jettySize=auto;html=1;exitX=0.5;exitY=1;exitDx=0;exitDy=0;" edge="1" parent="1" source="xBRm8FuffjSxmIKwbL47-3" target="xBRm8FuffjSxmIKwbL47-6">
          <mxGeometry relative="1" as="geometry">
            <Array as="points">
              <mxPoint x="160" y="430" />
              <mxPoint x="100" y="430" />
              <mxPoint x="100" y="720" />
            </Array>
          </mxGeometry>
        </mxCell>
        <mxCell id="xBRm8FuffjSxmIKwbL47-3" value="Teacher" style="html=1;dashed=0;whitespace=wrap;" vertex="1" parent="1">
          <mxGeometry x="110" y="360" width="100" height="50" as="geometry" />
        </mxCell>
        <mxCell id="xBRm8FuffjSxmIKwbL47-4" value="Course" style="html=1;dashed=0;whitespace=wrap;shape=partialRectangle;right=0;left=0;" vertex="1" parent="1">
          <mxGeometry x="580" y="460" width="100" height="30" as="geometry" />
        </mxCell>
        <mxCell id="xBRm8FuffjSxmIKwbL47-15" style="edgeStyle=orthogonalEdgeStyle;rounded=0;orthogonalLoop=1;jettySize=auto;html=1;exitX=0.5;exitY=1;exitDx=0;exitDy=0;entryX=0.001;entryY=0.618;entryDx=0;entryDy=0;entryPerimeter=0;" edge="1" parent="1" source="xBRm8FuffjSxmIKwbL47-5" target="xBRm8FuffjSxmIKwbL47-6">
          <mxGeometry relative="1" as="geometry" />
        </mxCell>
        <mxCell id="xBRm8FuffjSxmIKwbL47-16" style="edgeStyle=orthogonalEdgeStyle;rounded=0;orthogonalLoop=1;jettySize=auto;html=1;exitX=1;exitY=0.5;exitDx=0;exitDy=0;entryX=0;entryY=0.5;entryDx=0;entryDy=0;" edge="1" parent="1" source="xBRm8FuffjSxmIKwbL47-5" target="xBRm8FuffjSxmIKwbL47-7">
          <mxGeometry relative="1" as="geometry" />
        </mxCell>
        <mxCell id="xBRm8FuffjSxmIKwbL47-5" value="Student" style="html=1;dashed=0;whitespace=wrap;" vertex="1" parent="1">
          <mxGeometry x="130" y="560" width="100" height="50" as="geometry" />
        </mxCell>
        <mxCell id="xBRm8FuffjSxmIKwbL47-17" style="edgeStyle=orthogonalEdgeStyle;rounded=0;orthogonalLoop=1;jettySize=auto;html=1;exitX=1;exitY=0.5;exitDx=0;exitDy=0;entryX=0.5;entryY=1;entryDx=0;entryDy=0;" edge="1" parent="1" source="xBRm8FuffjSxmIKwbL47-6" target="xBRm8FuffjSxmIKwbL47-7">
          <mxGeometry relative="1" as="geometry" />
        </mxCell>
        <mxCell id="xBRm8FuffjSxmIKwbL47-6" value="3.0&lt;br&gt;Learn any course" style="shape=ellipse;html=1;dashed=0;whitespace=wrap;aspect=fixed;perimeter=ellipsePerimeter;" vertex="1" parent="1">
          <mxGeometry x="280" y="620" width="110" height="110" as="geometry" />
        </mxCell>
        <mxCell id="xBRm8FuffjSxmIKwbL47-18" style="edgeStyle=orthogonalEdgeStyle;rounded=0;orthogonalLoop=1;jettySize=auto;html=1;entryX=0.186;entryY=1.076;entryDx=0;entryDy=0;entryPerimeter=0;" edge="1" parent="1" source="xBRm8FuffjSxmIKwbL47-7" target="xBRm8FuffjSxmIKwbL47-4">
          <mxGeometry relative="1" as="geometry" />
        </mxCell>
        <mxCell id="xBRm8FuffjSxmIKwbL47-7" value="2.0&lt;br&gt;View all courses" style="shape=ellipse;html=1;dashed=0;whitespace=wrap;aspect=fixed;perimeter=ellipsePerimeter;" vertex="1" parent="1">
          <mxGeometry x="389" y="510" width="91" height="91" as="geometry" />
        </mxCell>
      </root>
    </mxGraphModel>
  </diagram>
</mxfile>
